#!OML:ASF H:\Terrain\Patient Classification 1\Walking\liu\liu.ASF
:FULLY-SPECIFIED
:DEGREES
291
root 20.132401 33.723801 7.634000 11.878380 3.750860 6.915540
lowerback -12.229240 -7.423280 -9.529060
upperback -0.149883 -9.375180 4.158480
thorax 7.816480 -4.884060 8.742460
lowerneck -43.513599 -8.023440 -23.473000
upperneck 45.323799 -9.615300 23.215401
head 23.168800 -3.505800 11.068740
rclavicle -0.000000 0.000000
rhumerus -94.190399 15.145880 -165.911804
rradius 80.304398
rwrist -45.524799
rhand -58.914600 -46.114799
rfingers 14.250040
rthumb -5.586800 -106.037804
lclavicle -0.000000 0.000000
lhumerus -21.915001 -43.910999 172.336197
lradius 54.158199
lwrist 14.647920
lhand -31.973200 -48.145199
lfingers 14.250040
lthumb 20.426201 11.318960
rfemur -74.942802 0.760408 30.116400
rtibia 83.618401
rfoot -43.637798 -20.566601
rtoes -41.998798
lfemur -6.867100 8.539100 -59.067799
ltibia 36.510201
lfoot -37.325199 8.710360
ltoes -6.586720
292
root 20.130600 33.738800 7.927780 11.670820 4.413600 6.856200
lowerback -12.100140 -7.559000 -9.550440
upperback -0.317026 -9.560700 4.141880
thorax 7.591320 -4.967780 8.730300
lowerneck -43.055401 -8.107980 -23.043400
upperneck 46.143600 -9.744040 22.282801
head 23.368999 -3.657780 10.640240
rclavicle 0.000000 -0.000000
rhumerus -95.114197 14.748200 -166.058395
rradius 79.782600
rwrist -44.695999
rhand -58.217999 -45.876202
rfingers 14.250040
rthumb -4.914000 -105.807404
lclavicle 0.000000 -0.000000
lhumerus -21.969801 -45.803001 172.735794
lradius 55.301399
lwrist 16.829081
lhand -31.893000 -47.076599
lfingers 14.250040
lthumb 20.503599 12.383660
rfemur -75.022797 1.592174 29.544600
rtibia 79.873199
rfoot -42.776600 -18.555620
rtoes -36.423199
lfemur -4.504560 8.915660 -58.690399
ltibia 34.610401
lfoot -37.295399 7.713900
ltoes -6.089560
293
root 20.143000 33.762402 8.204060 11.580100 5.611380 6.928000
lowerback -11.807740 -7.848440 -9.465960
upperback -0.503970 -9.965300 4.109500
thorax 7.268620 -5.156060 8.630360
lowerneck -41.927601 -7.978580 -24.162600
upperneck 45.326801 -9.719860 24.005800
head 22.917999 -3.563840 11.471160
rclavicle 0.000000 0.000000
rhumerus -96.119003 15.162680 -166.621002
rradius 79.838402
rwrist -45.271400
rhand -59.566799 -50.716801
rfingers 14.250040
rthumb -6.216520 -110.630997
lclavicle 0.000000 0.000000
lhumerus -21.793200 -48.487598 173.085007
lradius 56.264599
lwrist 19.671101
lhand -31.516001 -45.699200
lfingers 14.250040
lthumb 20.867201 13.743020
rfemur -75.248199 1.953700 28.687799
rtibia 76.236397
rfoot -42.173401 -18.638060
rtoes -39.457001
lfemur -1.992838 9.153160 -58.481998
ltibia 32.219398
lfoot -36.729000 6.627840
ltoes -7.036780
294
root 20.138201 33.778999 8.464780 12.198560 5.975680 6.558120
lowerback -12.612800 -7.805020 -9.134540
upperback -0.467190 -9.901480 4.268140
thorax 7.737160 -5.130160 8.563260
lowerneck -41.978401 -8.130280 -24.439400
upperneck 44.918800 -9.909940 24.401199
head 22.822800 -3.622520 11.624940
rclavicle -0.000000 0.000000
rhumerus -96.205002 15.541020 -166.914993
rradius 79.757797
rwrist -46.017200
rhand -62.427399 -60.087002
rfingers 14.250040
rthumb -8.979080 -119.951797
lclavicle -0.000000 0.000000
lhumerus -20.938200 -50.670399 173.292404
lradius 57.370201
lwrist 21.827000
lhand -31.143200 -44.735199
lfingers 14.250040
lthumb 21.226801 14.688820
rfemur -76.630203 3.927800 28.067801
rtibia 72.720200
rfoot -42.966000 -19.465340
rtoes -42.330601
lfemur -0.079385 9.257060 -57.870998
ltibia 28.998800
lfoot -35.654202 6.376240
ltoes -6.655340
295
root 20.128201 33.771000 8.749000 12.654820 6.388300 6.912460
lowerback -13.599680 -7.903580 -9.710140
upperback -0.283596 -9.944000 4.221280
thorax 8.533740 -5.182080 8.760340
lowerneck -43.620399 -8.524460 -23.327801
upperneck 45.837200 -10.377700 23.084600
head 23.486601 -3.851840 10.887200
rclavicle 0.000000 0.000000
rhumerus -96.127602 15.646200 -167.029999
rradius 79.157799
rwrist -45.731602
rhand -62.541000 -60.014198
rfingers 14.250040
rthumb -9.088720 -119.876801
lclavicle 0.000000 0.000000
lhumerus -20.141600 -52.389000 173.285004
lradius 58.653198
lwrist 23.478001
lhand -31.047400 -44.449600
lfingers 14.250040
lthumb 21.319401 14.969540
rfemur -77.790001 5.599720 26.552999
rtibia 69.485199
rfoot -43.589001 -19.194839
rtoes -41.955399
lfemur 2.399860 8.784060 -58.033798
ltibia 25.252600
lfoot -34.711201 6.174880
ltoes -2.889160
